#!OML:ASF F:\VICON\USERDATA\INSTALL\rory3\rory3.ASF
:FULLY-SPECIFIED
:DEGREES
1448
root 2.94775 9.97602 -5.75538 -196.353 214.369 -186.42
lowerback 27.5161 4.83258 -0.512163
upperback 9.36405 5.89418 1.56989
thorax -4.91794 2.72508 0.204931
lowerneck -17.0767 2.58267 -7.91433
upperneck 25.2379 4.17726 6.29448
head 10.5963 1.89924 4.18036
rclavicle 4.27387e-014 -1.27222e-014
rhumerus -42.2499 37.2169 -82.7013
rradius 100.837
rwrist 47.1233
rhand -35.571 17.2434
rfingers 7.12502
rthumb -8.6958 -12.5575
lclavicle 4.27387e-014 -1.27222e-014
lhumerus -28.4514 -30.7384 88.9083
lradius 83.0245
lwrist -20.1171
lhand -38.7278 9.56996
lfingers 7.12502
lthumb -11.7411 39.2209
rfemur -78.9209 -11.804 14.7382
rtibia 111.687
rfoot 3.58271 4.88776
rtoes -12.3399
lfemur -71.8328 25.1709 -11.1095
ltibia 108.475
lfoot -1.95833 -42.1708
ltoes 5.0907
1449
root 2.95071 9.96803 -5.75636 -196.453 214.139 -186.522
lowerback 27.5862 4.76878 -0.434839
upperback 9.37901 5.83569 1.61312
thorax -4.93105 2.69677 0.222639
lowerneck -17.2094 2.59815 -8.04276
upperneck 25.062 4.18211 6.55121
head 10.5451 1.9278 4.29201
rclavicle 4.67144e-015 -8.74653e-015
rhumerus -42.4197 37.1017 -82.5608
rradius 101.112
rwrist 47.2167
rhand -35.4573 17.5894
rfingers 7.12502
rthumb -8.58608 -12.216
lclavicle 4.67144e-015 -8.74653e-015
lhumerus -28.3237 -30.9179 88.9718
lradius 82.8714
lwrist -19.7357
lhand -38.8303 9.41253
lfingers 7.12502
lthumb -11.84 39.0578
rfemur -78.8746 -11.948 15.2045
rtibia 111.164
rfoot 4.01459 4.86894
rtoes -12.0135
lfemur -72.0266 24.8971 -11.2278
ltibia 108.685
lfoot -4.45325 -41.9097
ltoes 0.742441
1450
root 2.95161 9.96562 -5.75738 -196.674 214.044 -186.501
lowerback 27.6269 4.76206 -0.408561
upperback 9.446 5.82815 1.57858
thorax -4.86917 2.69346 0.173302
lowerneck -17.3666 2.62888 -8.04647
upperneck 24.8964 4.18598 6.76455
head 10.5069 1.96209 4.36807
rclavicle -2.36554e-014 -2.38542e-015
rhumerus -42.4231 36.9129 -82.5121
rradius 101.174
rwrist 47.2335
rhand -35.5729 17.8154
rfingers 7.12502
rthumb -8.69762 -11.9854
lclavicle -2.36554e-014 -2.38542e-015
lhumerus -28.032 -31.1698 88.838
lradius 82.7607
lwrist -19.4027
lhand -38.7048 9.21813
lfingers 7.12502
lthumb -11.719 38.8703
rfemur -78.7435 -11.8727 15.494
rtibia 110.652
rfoot 4.65815 4.22548
rtoes -7.61241
lfemur -72.2178 24.856 -11.4985
ltibia 108.954
lfoot -5.73169 -41.0848
ltoes 0.715028
1451
root 2.95138 9.96155 -5.75749 -196.777 213.898 -186.599
lowerback 27.6632 4.71442 -0.261033
upperback 9.45989 5.80208 1.53003
thorax -4.85103 2.68347 0.044034
lowerneck -17.6066 2.6963 -7.80508
upperneck 24.852 4.21882 6.81155
head 10.5381 2.00918 4.35473
rclavicle 2.5842e-015 7.95139e-016
rhumerus -42.4314 36.6441 -82.5894
rradius 101.129
rwrist 47.3623
rhand -35.8655 17.8602
rfingers 7.12502
rthumb -8.97997 -11.9287
lclavicle 2.5842e-015 7.95139e-016
lhumerus -27.9586 -31.3698 88.7265
lradius 82.8641
lwrist -19.3101
lhand -38.3563 9.42098
lfingers 7.12502
lthumb -11.3829 39.092
rfemur -78.5508 -11.8266 15.7932
rtibia 110.16
rfoot 5.20381 3.74062
rtoes -4.91932
lfemur -72.2827 24.6544 -11.4711
ltibia 109.098
lfoot -5.59644 -40.7844
ltoes 1.69211
1452
root 2.95 9.95558 -5.75426 -196.776 213.729 -186.624
lowerback 27.5672 4.6724 -0.218926
upperback 9.4475 5.76163 1.50909
thorax -4.81276 2.66654 0.0158874
lowerneck -17.8353 2.73425 -7.56879
upperneck 24.7531 4.25403 6.69673
head 10.5526 2.03789 4.28124
rclavicle -6.1822e-014 -1.59028e-014
rhumerus -42.4541 36.3765 -82.6166
rradius 101.108
rwrist 47.3653
rhand -35.9725 18.0567
rfingers 7.12502
rthumb -9.08324 -11.7277
lclavicle -6.1822e-014 -1.59028e-014
lhumerus -27.8692 -31.4309 88.6585
lradius 82.8537
lwrist -19.1719
lhand -38.2341 9.44358
lfingers 7.12502
lthumb -11.2651 39.1211
rfemur -78.5933 -11.9076 16.0637
rtibia 109.747
rfoot 5.95003 3.34077
rtoes -3.99577
lfemur -72.5212 24.479 -11.6081
ltibia 109.212
lfoot -6.17871 -40.5857
ltoes 0.334694
1453
root 2.94667 9.94717 -5.74772 -196.899 213.585 -186.669
lowerback 27.4971 4.6483 -0.115173
upperback 9.49809 5.75902 1.52204
thorax -4.71475 2.66795 -0.0204374
lowerneck -17.8658 2.72402 -7.43235
upperneck 24.5624 4.21455 6.66083
head 10.4967 2.03364 4.23303
rclavicle -3.02153e-014 -1.43125e-014
rhumerus -42.4686 36.0665 -82.5738
rradius 101.077
rwrist 47.3049
rhand -36.1814 18.1383
rfingers 7.12502
rthumb -9.2848 -11.6372
lclavicle -3.02153e-014 -1.43125e-014
lhumerus -27.7301 -31.6385 88.6018
lradius 82.8349
lwrist -19.0685
lhand -38.0068 9.59176
lfingers 7.12502
lthumb -11.0458 39.2811
rfemur -78.4075 -11.9744 16.2347
rtibia 109.416
rfoot 6.78646 2.45699
rtoes 0.714638
lfemur -72.318 24.2326 -11.4683
ltibia 109.205
lfoot -5.89283 -40.7978
ltoes 0.393237
1454
root 2.93715 9.93308 -5.73584 -197.017 213.431 -186.551
lowerback 27.3047 4.63966 -0.201988
upperback 9.52388 5.72709 1.49327
thorax -4.59985 2.65465 0.020876
lowerneck -17.7931 2.75981 -7.32704
upperneck 24.35 4.22367 6.69106
head 10.4058 2.05649 4.21565
rclavicle -1.11319e-014 -1.90833e-014
rhumerus -42.4053 35.7896 -82.5873
rradius 100.977
rwrist 47.3045
rhand -36.4268 17.6247
rfingers 7.12502
rthumb -9.52165 -12.1402
lclavicle -1.11319e-014 -1.90833e-014
lhumerus -27.5597 -31.8968 88.4637
lradius 82.7519
lwrist -18.8812
lhand -38.0018 9.64011
lfingers 7.12502
lthumb -11.041 39.3297
rfemur -78.3128 -12.0686 16.2537
rtibia 109.189
rfoot 7.55291 3.34945
rtoes -2.57785
lfemur -71.8737 23.9537 -11.3017
ltibia 109.071
lfoot -3.88583 -41.258
ltoes 3.56535
1455
root 2.92993 9.92484 -5.72797 -197.247 213.244 -186.161
lowerback 27.1498 4.66468 -0.615435
upperback 9.50723 5.65646 1.45922
thorax -4.57925 2.61741 0.247044
lowerneck -17.8496 2.83975 -7.25727
upperneck 24.2443 4.32059 6.69652
head 10.3715 2.11145 4.2152
rclavicle -4.13472e-014 -2.14687e-014
rhumerus -42.4109 35.659 -82.6047
rradius 100.875
rwrist 47.3322
rhand -36.5507 17.4918
rfingers 7.12502
rthumb -9.64119 -12.2676
lclavicle -4.13472e-014 -2.14687e-014
lhumerus -27.4913 -32.0082 88.4557
lradius 82.6748
lwrist -18.6113
lhand -37.8933 9.58457
lfingers 7.12502
lthumb -10.9364 39.2797
rfemur -78.227 -12.1713 16.0301
rtibia 109.008
rfoot 8.45503 3.7291
rtoes -2.59257
lfemur -71.6303 23.646 -11.5375
ltibia 108.99
lfoot -2.56249 -41.2603
ltoes 5.98467
1456
root 2.92397 9.92117 -5.72347 -197.355 213.112 -186
lowerback 27.0343 4.69473 -0.786429
upperback 9.47189 5.6592 1.48315
thorax -4.58213 2.61831 0.373969
lowerneck -17.8207 2.85717 -7.37225
upperneck 24.0702 4.34204 6.84396
head 10.2931 2.13357 4.28133
rclavicle -3.22031e-014 5.88403e-014
rhumerus -42.4611 35.3999 -82.6028
rradius 100.806
rwrist 47.2683
rhand -36.5831 17.5726
rfingers 7.12502
rthumb -9.67246 -12.1854
lclavicle -3.22031e-014 5.88403e-014
lhumerus -27.3265 -32.2321 88.4341
lradius 82.5114
lwrist -18.282
lhand -37.5626 9.46393
lfingers 7.12502
lthumb -10.6174 39.1757
rfemur -78.0745 -12.1889 16.0244
rtibia 108.868
rfoot 9.09873 3.67789
rtoes -3.19276
lfemur -71.6362 23.5118 -11.7101
ltibia 109.029
lfoot -1.64842 -41.1173
ltoes 8.26844
1457
root 2.91585 9.91358 -5.7165 -197.483 213.028 -185.926
lowerback 26.9743 4.73498 -0.854562
upperback 9.46829 5.7022 1.5592
thorax -4.57291 2.63863 0.485231
lowerneck -17.7969 2.84031 -7.60582
upperneck 23.9325 4.32677 7.08174
head 10.2262 2.13828 4.3968
rclavicle -7.41467e-014 -4.77083e-015
rhumerus -42.4852 35.1451 -82.5065
rradius 100.735
rwrist 47.158
rhand -36.7875 17.7827
rfingers 7.12502
rthumb -9.86966 -11.966
lclavicle -7.41467e-014 -4.77083e-015
lhumerus -27.1976 -32.5129 88.4687
lradius 82.3925
lwrist -17.9068
lhand -37.3852 9.25595
lfingers 7.12502
lthumb -10.4462 38.9764
rfemur -77.8441 -12.151 16.0066
rtibia 108.76
rfoot 9.60322 3.58151
rtoes -3.41013
lfemur -71.4809 23.508 -11.8236
ltibia 109.128
lfoot -2.27775 -40.9202
ltoes 7.74574
1458
root 2.88749 9.86604 -5.68523 -197.627 212.999 -185.949
lowerback 27.0269 4.77203 -0.838461
upperback 9.47323 5.75885 1.63471
thorax -4.60028 2.66528 0.537503
lowerneck -17.8143 2.84705 -7.56804
upperneck 23.813 4.32433 7.10108
head 10.1869 2.1464 4.39235
rclavicle -4.16454e-014 -2.22639e-014
rhumerus -42.4895 34.8886 -82.4765
rradius 100.664
rwrist 46.8932
rhand -36.8851 17.9133
rfingers 7.12502
rthumb -9.96376 -11.8308
lclavicle -4.16454e-014 -2.22639e-014
lhumerus -27.1593 -32.8259 88.5322
lradius 82.3414
lwrist -17.6618
lhand -37.44 9.19375
lfingers 7.12502
lthumb -10.4991 38.9116
rfemur -77.8 -12.2063 16.0713
rtibia 108.973
rfoot 10.1433 3.30234
rtoes -2.20269
lfemur -71.2803 23.8188 -11.7672
ltibia 109.591
lfoot -4.8659 -40.8101
ltoes 4.08083
1459
root 2.90314 9.90782 -5.71523 -197.634 212.929 -186.025
lowerback 27.0149 4.77684 -0.756595
upperback 9.43825 5.79341 1.6948
thorax -4.63302 2.68346 0.545107
lowerneck -17.8825 2.81995 -7.45691
upperneck 23.7448 4.2744 7.04766
head 10.1843 2.12937 4.34791
rclavicle -5.46658e-015 -2.22639e-014
rhumerus -42.4715 34.5408 -82.5319
rradius 100.466
rwrist 46.6338
rhand -36.6328 17.8781
rfingers 7.12502
rthumb -9.72038 -11.8776
lclavicle -5.46658e-015 -2.22639e-014
lhumerus -27.0977 -33.1939 88.5827
lradius 82.1999
lwrist -17.4664
lhand -37.5813 9.38589
lfingers 7.12502
lthumb -10.6354 39.0967
rfemur -77.1682 -12.1966 16.351
rtibia 108.565
rfoot 10.3082 2.8978
rtoes -2.14912
lfemur -71.4274 23.3777 -11.6617
ltibia 109.18
lfoot -0.392679 -40.4582
ltoes 11.2975
1460
root 2.89929 9.91244 -5.71821 -197.631 212.833 -185.997
lowerback 26.8741 4.7641 -0.804869
upperback 9.38681 5.77722 1.76943
thorax -4.63556 2.67645 0.664631
lowerneck -17.8017 2.8279 -7.58032
upperneck 23.5895 4.3092 7.08771
head 10.1057 2.14261 4.37736
rclavicle -5.06901e-015 -3.97569e-016
rhumerus -42.4493 34.3897 -82.501
rradius 100.301
rwrist 46.3228
rhand -36.2842 17.8033
rfingers 7.12502
rthumb -9.38403 -11.9678
lclavicle -5.06901e-015 -3.97569e-016
lhumerus -27.1186 -33.3966 88.6784
lradius 82.0842
lwrist -17.2406
lhand -37.7794 9.39657
lfingers 7.12502
lthumb -10.8265 39.0975
rfemur -76.9585 -12.2154 16.3992
rtibia 108.542
rfoot 10.4347 2.70455
rtoes -2.33502
lfemur -71.6119 23.1754 -11.7537
ltibia 109.145
lfoot 0.820383 -40.2237
ltoes 14.5074
